<svg xmlns="http://www.w3.org/2000/svg" viewBox="0 0 500 500"><defs><style>.cls-1{fill:#fff;}.cls-2{fill:#2a21a3;}.cls-3{fill:#725bff;}.cls-4{fill:#00e6cd;}</style></defs><title>Asset 5</title><g id="Layer_2" data-name="Layer 2"><g id="Layer_1-2" data-name="Layer 1"><rect class="cls-1" width="500" height="500"/><polygon class="cls-2" points="179.58 227.72 179.58 249.8 162.5 239.94 162.5 285.44 143.32 274.36 143.32 228.87 126.24 219.01 126.24 196.93 179.58 227.72"/><polygon class="cls-3" points="171.04 232.74 171.04 254.82 153.97 244.96 153.97 290.46 134.78 279.38 134.78 233.89 117.71 224.03 117.71 201.95 171.04 232.74"/><polygon class="cls-4" points="162.5 237.76 162.5 259.84 145.43 249.98 145.43 295.48 126.25 284.4 126.25 238.91 109.17 229.05 109.17 206.97 162.5 237.76"/><path class="cls-2" d="M221.12,232.08H203.35V220.64H251.7v11.44H233.84v53H221.12Z"/><path class="cls-2" d="M294.16,240.81v44.31h-11.3v-5.36h-.22q-4.74,6.12-13.25,6.12a21.88,21.88,0,0,1-8.49-1.64,19.55,19.55,0,0,1-6.73-4.59,20.7,20.7,0,0,1-4.41-7.22,27.8,27.8,0,0,1,0-18.59,21.84,21.84,0,0,1,4.36-7.31A20.22,20.22,0,0,1,269,240.05a16.43,16.43,0,0,1,13.07,5.77h.18v-5Zm-14.62,31.06a12.09,12.09,0,0,0,3.23-8.73,12.77,12.77,0,0,0-3.17-8.86,10.25,10.25,0,0,0-8-3.54,10.79,10.79,0,0,0-8.14,3.41,12.47,12.47,0,0,0-3.25,9,12.21,12.21,0,0,0,3.16,8.73,11.37,11.37,0,0,0,16.16,0Z"/><path class="cls-2" d="M304.54,218.3h11.88v66.82H304.54Z"/><path class="cls-2" d="M327.68,218.3h11.87v66.82H327.68Z"/><path class="cls-2" d="M390.83,240.81,367,303.07H354.8l7.89-20.69L345,240.81h12.41l10.86,27.43h.13l10.15-27.43Z"/></g></g></svg>